<svg width="2000px" height="1226px"
 viewBox="0.00 0.00 860.82 528.14" xmlns="http://www.w3.org/2000/svg" xmlns:xlink="http://www.w3.org/1999/xlink">
<g id="graph0" class="graph" transform="scale(1.0 1.0) rotate(0) translate(4 524.14)">
<title>ContextMapGraph</title>
<polygon fill="white" stroke="transparent" points="-4,4 -4,-524.14 856.82,-524.14 856.82,4 -4,4"/>
<!-- GestionAlquiler -->
<g id="node1" class="node">
<title>GestionAlquiler</title>
<polygon fill="none" stroke="black" stroke-width="2" points="394.36,-460.38 396.34,-457.61 398.63,-454.89 401.21,-452.23 404.08,-449.64 407.23,-447.14 410.64,-444.72 414.31,-442.41 418.23,-440.21 422.38,-438.13 426.75,-436.17 431.32,-434.35 436.1,-432.67 441.05,-431.13 446.17,-429.75 451.45,-428.52 456.86,-427.44 462.41,-426.53 468.06,-425.77 473.8,-425.18 479.63,-424.74 485.52,-424.47 491.47,-424.35 497.45,-424.39 503.45,-424.58 509.46,-424.92 515.46,-425.4 521.44,-426.01 527.38,-426.77 533.27,-427.64 539.09,-428.64 544.84,-429.75 550.48,-430.97 556.03,-432.29 561.45,-433.69 566.73,-435.19 571.87,-436.76 576.85,-438.4 581.65,-440.11 586.27,-441.87 590.7,-443.69 594.91,-445.54 598.91,-447.43 602.68,-449.36 606.21,-451.31 609.49,-453.27 612.51,-455.26 615.27,-457.25 617.75,-459.25 619.95,-461.25 621.85,-463.25 623.47,-465.24 624.78,-467.23 625.78,-469.21 626.48,-471.17 626.86,-473.13 626.92,-475.06 626.66,-476.98 626.08,-478.88 625.19,-480.76 623.97,-482.61 622.43,-484.45 620.58,-486.26 618.42,-488.04 615.94,-489.8 613.17,-491.53 610.09,-493.23 606.73,-494.91 603.08,-496.54 599.16,-498.15 594.98,-499.71 590.54,-501.24 585.87,-502.72 580.96,-504.15 575.84,-505.54 570.51,-506.87 565,-508.15 559.32,-509.36 553.48,-510.5 547.51,-511.57 541.41,-512.57 535.21,-513.49 528.93,-514.32 522.58,-515.05 516.18,-515.69 509.75,-516.23 503.31,-516.66 496.89,-516.98 490.49,-517.18 484.14,-517.27 477.87,-517.22 471.68,-517.05 465.59,-516.74 459.63,-516.3 453.82,-515.72 448.16,-515 442.68,-514.14 437.4,-513.14 432.33,-511.99 427.48,-510.71 422.87,-509.29 418.51,-507.73 414.42,-506.03 410.6,-504.21 407.07,-502.26 403.84,-500.19 400.91,-498.01 398.3,-495.72 396,-493.33 394.03,-490.85 392.39,-488.29 391.09,-485.65 390.12,-482.96 389.48,-480.2 389.18,-477.41 389.22,-474.58 389.6,-471.74 390.3,-468.88 391.33,-466.03 392.69,-463.19 394.36,-460.38"/>
<text text-anchor="middle" x="508.82" y="-468.41" font-family="sans-serif" font-size="16.00">GestionAlquiler</text>
</g>
<!-- GestionClientes -->
<g id="node2" class="node">
<title>GestionClientes</title>
<polygon fill="none" stroke="black" stroke-width="2" points="225.51,-332.73 224.38,-329.88 223.58,-327.03 223.14,-324.19 223.03,-321.38 223.28,-318.6 223.88,-315.87 224.83,-313.2 226.13,-310.59 227.78,-308.07 229.77,-305.62 232.11,-303.27 234.77,-301.02 237.77,-298.88 241.08,-296.86 244.71,-294.95 248.64,-293.17 252.85,-291.52 257.35,-290 262.1,-288.62 267.11,-287.37 272.35,-286.27 277.81,-285.29 283.47,-284.46 289.31,-283.77 295.32,-283.21 301.48,-282.78 307.76,-282.49 314.15,-282.32 320.63,-282.28 327.18,-282.36 333.77,-282.55 340.4,-282.86 347.03,-283.28 353.64,-283.79 360.22,-284.41 366.75,-285.12 373.2,-285.92 379.55,-286.8 385.8,-287.77 391.92,-288.8 397.88,-289.91 403.68,-291.08 409.3,-292.31 414.72,-293.61 419.93,-294.95 424.91,-296.35 429.65,-297.79 434.14,-299.29 438.37,-300.82 442.32,-302.39 446,-304.01 449.37,-305.66 452.45,-307.34 455.23,-309.06 457.69,-310.81 459.84,-312.59 461.67,-314.4 463.18,-316.25 464.37,-318.11 465.23,-320.01 465.77,-321.93 465.99,-323.87 465.88,-325.84 465.46,-327.83 464.72,-329.83 463.68,-331.86 462.32,-333.89 460.66,-335.94 458.71,-337.99 456.48,-340.04 453.96,-342.1 451.16,-344.15 448.1,-346.19 444.79,-348.21 441.23,-350.22 437.42,-352.2 433.4,-354.14 429.15,-356.05 424.69,-357.91 420.04,-359.72 415.21,-361.46 410.2,-363.14 405.03,-364.74 399.71,-366.27 394.25,-367.7 388.67,-369.03 382.98,-370.25 377.19,-371.37 371.32,-372.36 365.37,-373.23 359.37,-373.97 353.32,-374.57 347.24,-375.02 341.15,-375.33 335.06,-375.49 328.99,-375.48 322.94,-375.32 316.94,-375 311,-374.51 305.13,-373.87 299.35,-373.05 293.67,-372.08 288.12,-370.95 282.7,-369.65 277.42,-368.21 272.32,-366.61 267.39,-364.87 262.65,-362.99 258.12,-360.98 253.81,-358.85 249.74,-356.6 245.91,-354.24 242.34,-351.79 239.04,-349.24 236.02,-346.62 233.3,-343.93 230.87,-341.19 228.76,-338.4 226.97,-335.58 225.51,-332.73"/>
<text text-anchor="middle" x="345.82" y="-323.28" font-family="sans-serif" font-size="16.00">GestionClientes</text>
</g>
<!-- GestionAlquiler&#45;&gt;GestionClientes -->
<g id="edge1" class="edge">
<title>GestionAlquiler&#45;&gt;GestionClientes</title>
<path fill="none" stroke="black" stroke-width="2" d="M458.59,-427.1C437.26,-408.37 412.57,-386.69 391.73,-368.4"/>
<text text-anchor="middle" x="508.32" y="-396.68" font-family="sans-serif" font-size="12.00"> &#160;&#160;&#160;&#160;&#160;&#160;&#160;&#160;&#160;&#160;&#160;&#160;&#160;&#160;&#160;&#160;&#160;&#160;&#160;&#160;&#160;&#160;&#160;&#160;&#160;&#160;&#160;&#160;&#160;&#160;&#160;&#160;&#160;&#160;&#160;&#160;&#160;&#160;&#160;</text>
<polygon fill="white" stroke="transparent" points="368.73,-358.4 368.73,-377.4 384.73,-377.4 384.73,-358.4 368.73,-358.4"/>
<polyline fill="none" stroke="black" points="384.73,-358.4 384.73,-377.4 "/>
<text text-anchor="start" x="371.73" y="-364.8" font-family="sans-serif" font-size="12.00">D</text>
<polygon fill="white" stroke="transparent" points="384.73,-358.4 384.73,-377.4 414.73,-377.4 414.73,-358.4 384.73,-358.4"/>
<polygon fill="none" stroke="black" points="384.73,-358.4 384.73,-377.4 414.73,-377.4 414.73,-358.4 384.73,-358.4"/>
<text text-anchor="start" x="387.73" y="-364.8" font-family="sans-serif" font-size="12.00">ACL</text>
<polygon fill="white" stroke="transparent" points="451.59,-418.1 451.59,-435.1 465.59,-435.1 465.59,-418.1 451.59,-418.1"/>
<text text-anchor="start" x="453.59" y="-423.5" font-family="sans-serif" font-size="12.00">U</text>
</g>
<!-- GestionPagos -->
<g id="node4" class="node">
<title>GestionPagos</title>
<polygon fill="none" stroke="black" stroke-width="2" points="312.81,-85.38 306.19,-84.36 299.71,-83.24 293.42,-82.02 287.32,-80.7 281.46,-79.29 275.85,-77.79 270.52,-76.21 265.48,-74.55 260.75,-72.81 256.36,-71.01 252.32,-69.15 248.64,-67.23 245.34,-65.26 242.42,-63.24 239.89,-61.19 237.77,-59.09 236.05,-56.97 234.73,-54.83 233.82,-52.66 233.3,-50.49 233.19,-48.31 233.47,-46.12 234.13,-43.94 235.17,-41.76 236.57,-39.6 238.33,-37.46 240.42,-35.33 242.83,-33.24 245.55,-31.18 248.55,-29.15 251.83,-27.17 255.37,-25.23 259.13,-23.34 263.12,-21.51 267.3,-19.73 271.65,-18.02 276.17,-16.37 280.82,-14.79 285.6,-13.28 290.48,-11.85 295.44,-10.51 300.48,-9.24 305.57,-8.06 310.7,-6.98 315.85,-5.98 321.01,-5.08 326.18,-4.28 331.33,-3.58 336.46,-2.99 341.56,-2.5 346.62,-2.12 351.63,-1.85 356.59,-1.68 361.49,-1.64 366.32,-1.7 371.09,-1.88 375.78,-2.17 380.39,-2.58 384.93,-3.1 389.38,-3.74 393.74,-4.5 398.02,-5.36 402.2,-6.34 406.29,-7.43 410.28,-8.62 414.18,-9.92 417.96,-11.33 421.64,-12.83 425.21,-14.43 428.66,-16.12 431.99,-17.9 435.19,-19.77 438.25,-21.71 441.17,-23.73 443.93,-25.81 446.54,-27.96 448.98,-30.16 451.24,-32.42 453.3,-34.71 455.18,-37.05 456.84,-39.41 458.27,-41.79 459.48,-44.19 460.45,-46.6 461.16,-49 461.6,-51.4 461.77,-53.78 461.66,-56.14 461.25,-58.47 460.55,-60.76 459.53,-63.01 458.19,-65.2 456.54,-67.33 454.56,-69.4 452.25,-71.39 449.61,-73.3 446.64,-75.13 443.35,-76.87 439.73,-78.51 435.79,-80.04 431.54,-81.48 426.98,-82.8 422.13,-84 417.01,-85.09 411.61,-86.06 405.97,-86.9 400.09,-87.62 394,-88.21 387.71,-88.67 381.25,-89 374.64,-89.2 367.91,-89.28 361.08,-89.22 354.18,-89.04 347.24,-88.73 340.27,-88.3 333.32,-87.74 326.41,-87.07 319.56,-86.28 312.81,-85.38"/>
<text text-anchor="middle" x="352.82" y="-40.96" font-family="sans-serif" font-size="16.00">GestionPagos</text>
</g>
<!-- GestionAlquiler&#45;&gt;GestionPagos -->
<g id="edge2" class="edge">
<title>GestionAlquiler&#45;&gt;GestionPagos</title>
<path fill="none" stroke="black" stroke-width="2" d="M565.07,-434.67C653.79,-372.51 808.53,-242.77 730.82,-138.52 698.82,-95.58 561.54,-70.26 461.62,-57.19"/>
<text text-anchor="middle" x="796.82" y="-251.28" font-family="sans-serif" font-size="12.00">Customer/Supplier</text>
<polygon fill="white" stroke="transparent" points="454.62,-48.19 454.62,-65.19 468.62,-65.19 468.62,-48.19 454.62,-48.19"/>
<text text-anchor="start" x="456.62" y="-53.59" font-family="sans-serif" font-size="12.00">D</text>
<polygon fill="white" stroke="transparent" points="558.07,-425.67 558.07,-442.67 572.07,-442.67 572.07,-425.67 558.07,-425.67"/>
<text text-anchor="start" x="560.07" y="-431.07" font-family="sans-serif" font-size="12.00">U</text>
</g>
<!-- Seguridad -->
<g id="node3" class="node">
<title>Seguridad</title>
<polygon fill="none" stroke="black" stroke-width="2" points="72.31,-142.33 77.89,-141.39 83.53,-140.56 89.18,-139.86 94.83,-139.29 100.46,-138.84 106.04,-138.54 111.56,-138.37 117,-138.33 122.32,-138.44 127.53,-138.68 132.6,-139.07 137.51,-139.59 142.24,-140.25 146.8,-141.05 151.15,-141.98 155.3,-143.04 159.22,-144.23 162.92,-145.55 166.39,-146.98 169.61,-148.53 172.59,-150.19 175.32,-151.95 177.81,-153.81 180.04,-155.77 182.02,-157.8 183.76,-159.92 185.25,-162.11 186.49,-164.36 187.5,-166.66 188.27,-169.01 188.82,-171.4 189.14,-173.83 189.25,-176.27 189.15,-178.73 188.84,-181.2 188.34,-183.66 187.65,-186.12 186.77,-188.56 185.72,-190.97 184.51,-193.35 183.13,-195.69 181.59,-197.98 179.91,-200.22 178.08,-202.4 176.11,-204.52 174,-206.57 171.77,-208.53 169.4,-210.42 166.91,-212.22 164.31,-213.93 161.58,-215.55 158.74,-217.07 155.78,-218.49 152.71,-219.81 149.54,-221.02 146.25,-222.13 142.86,-223.13 139.37,-224.02 135.77,-224.8 132.08,-225.47 128.28,-226.03 124.4,-226.48 120.42,-226.82 116.36,-227.04 112.21,-227.16 107.99,-227.17 103.7,-227.08 99.34,-226.88 94.93,-226.57 90.47,-226.17 85.97,-225.66 81.44,-225.05 76.9,-224.35 72.35,-223.55 67.8,-222.66 63.27,-221.69 58.78,-220.62 54.34,-219.47 49.95,-218.23 45.65,-216.92 41.44,-215.52 37.35,-214.06 33.38,-212.52 29.56,-210.91 25.9,-209.23 22.42,-207.5 19.14,-205.7 16.07,-203.84 13.23,-201.94 10.63,-199.98 8.29,-197.98 6.22,-195.94 4.44,-193.85 2.96,-191.74 1.78,-189.59 0.92,-187.42 0.38,-185.24 0.18,-183.03 0.31,-180.82 0.78,-178.6 1.59,-176.38 2.75,-174.17 4.24,-171.97 6.07,-169.79 8.23,-167.63 10.72,-165.51 13.52,-163.41 16.63,-161.37 20.04,-159.37 23.72,-157.42 27.68,-155.54 31.88,-153.72 36.32,-151.98 40.98,-150.31 45.83,-148.74 50.86,-147.25 56.04,-145.86 61.36,-144.58 66.79,-143.4 72.31,-142.33"/>
<text text-anchor="middle" x="100.82" y="-180.4" font-family="sans-serif" font-size="16.00">Seguridad</text>
</g>
<!-- GestionClientes&#45;&gt;Seguridad -->
<g id="edge3" class="edge">
<title>GestionClientes&#45;&gt;Seguridad</title>
<path fill="none" stroke="black" stroke-width="2" d="M227.42,-308.28C173.52,-297.53 118.12,-281.82 101.82,-260.88 94.32,-251.24 92.13,-238.61 92.39,-226.45"/>
<text text-anchor="middle" x="177.32" y="-251.28" font-family="sans-serif" font-size="12.00"> &#160;&#160;&#160;&#160;&#160;&#160;&#160;&#160;&#160;&#160;&#160;&#160;&#160;&#160;&#160;&#160;&#160;&#160;&#160;&#160;&#160;&#160;&#160;&#160;&#160;&#160;&#160;&#160;&#160;&#160;&#160;&#160;&#160;&#160;&#160;&#160;&#160;&#160;&#160;</text>
<polygon fill="white" stroke="transparent" points="69.39,-216.45 69.39,-235.45 85.39,-235.45 85.39,-216.45 69.39,-216.45"/>
<polyline fill="none" stroke="black" points="85.39,-216.45 85.39,-235.45 "/>
<text text-anchor="start" x="72.39" y="-222.85" font-family="sans-serif" font-size="12.00">D</text>
<polygon fill="white" stroke="transparent" points="85.39,-216.45 85.39,-235.45 115.39,-235.45 115.39,-216.45 85.39,-216.45"/>
<polygon fill="none" stroke="black" points="85.39,-216.45 85.39,-235.45 115.39,-235.45 115.39,-216.45 85.39,-216.45"/>
<text text-anchor="start" x="88.39" y="-222.85" font-family="sans-serif" font-size="12.00">ACL</text>
<polygon fill="white" stroke="transparent" points="220.42,-299.28 220.42,-316.28 234.42,-316.28 234.42,-299.28 220.42,-299.28"/>
<text text-anchor="start" x="222.42" y="-304.68" font-family="sans-serif" font-size="12.00">U</text>
</g>
<!-- GestionClientes&#45;&gt;GestionPagos -->
<g id="edge5" class="edge">
<title>GestionClientes&#45;&gt;GestionPagos</title>
<path fill="none" stroke="black" stroke-width="2" d="M305.16,-282.42C293.33,-266.98 281.96,-248.74 275.82,-229.88 263.26,-191.27 262.04,-176.71 275.82,-138.52 282.93,-118.83 296.23,-100.37 309.81,-85.18"/>
<text text-anchor="middle" x="351.32" y="-181.1" font-family="sans-serif" font-size="12.00"> &#160;&#160;&#160;&#160;&#160;&#160;&#160;&#160;&#160;&#160;&#160;&#160;&#160;&#160;&#160;&#160;&#160;&#160;&#160;&#160;&#160;&#160;&#160;&#160;&#160;&#160;&#160;&#160;&#160;&#160;&#160;&#160;&#160;&#160;&#160;&#160;&#160;&#160;&#160;</text>
<polygon fill="white" stroke="transparent" points="286.81,-75.18 286.81,-94.18 302.81,-94.18 302.81,-75.18 286.81,-75.18"/>
<polyline fill="none" stroke="black" points="302.81,-75.18 302.81,-94.18 "/>
<text text-anchor="start" x="289.81" y="-81.58" font-family="sans-serif" font-size="12.00">D</text>
<polygon fill="white" stroke="transparent" points="302.81,-75.18 302.81,-94.18 332.81,-94.18 332.81,-75.18 302.81,-75.18"/>
<polygon fill="none" stroke="black" points="302.81,-75.18 302.81,-94.18 332.81,-94.18 332.81,-75.18 302.81,-75.18"/>
<text text-anchor="start" x="305.81" y="-81.58" font-family="sans-serif" font-size="12.00">ACL</text>
<polygon fill="white" stroke="transparent" points="298.16,-273.42 298.16,-290.42 312.16,-290.42 312.16,-273.42 298.16,-273.42"/>
<text text-anchor="start" x="300.16" y="-278.82" font-family="sans-serif" font-size="12.00">U</text>
</g>
<!-- GestionVehiculos -->
<g id="node5" class="node">
<title>GestionVehiculos</title>
<polygon fill="none" stroke="black" stroke-width="2" points="553.26,-141.26 561.55,-140.66 569.86,-140.17 578.15,-139.82 586.4,-139.59 594.57,-139.48 602.63,-139.51 610.55,-139.67 618.29,-139.95 625.84,-140.37 633.16,-140.92 640.23,-141.6 647.03,-142.4 653.54,-143.33 659.73,-144.39 665.59,-145.56 671.11,-146.85 676.27,-148.26 681.07,-149.77 685.48,-151.39 689.52,-153.1 693.17,-154.91 696.42,-156.81 699.29,-158.79 701.77,-160.85 703.86,-162.97 705.57,-165.16 706.9,-167.4 707.87,-169.69 708.48,-172.03 708.73,-174.39 708.65,-176.78 708.24,-179.18 707.52,-181.6 706.49,-184.02 705.17,-186.43 703.57,-188.83 701.71,-191.21 699.59,-193.56 697.23,-195.87 694.65,-198.15 691.84,-200.37 688.84,-202.54 685.63,-204.65 682.25,-206.69 678.68,-208.66 674.95,-210.55 671.06,-212.36 667.02,-214.08 662.84,-215.71 658.51,-217.24 654.05,-218.68 649.46,-220.01 644.74,-221.23 639.9,-222.35 634.95,-223.36 629.88,-224.26 624.69,-225.04 619.4,-225.71 614,-226.27 608.5,-226.71 602.9,-227.04 597.21,-227.25 591.43,-227.35 585.57,-227.34 579.62,-227.21 573.61,-226.97 567.54,-226.63 561.41,-226.17 555.24,-225.61 549.04,-224.95 542.82,-224.18 536.59,-223.32 530.37,-222.36 524.18,-221.3 518.03,-220.16 511.94,-218.93 505.92,-217.61 500.01,-216.21 494.22,-214.74 488.56,-213.19 483.08,-211.57 477.77,-209.88 472.68,-208.13 467.82,-206.32 463.21,-204.45 458.88,-202.54 454.86,-200.57 451.15,-198.56 447.79,-196.52 444.8,-194.44 442.19,-192.32 439.98,-190.19 438.19,-188.03 436.83,-185.86 435.93,-183.68 435.48,-181.49 435.5,-179.3 436,-177.12 436.98,-174.94 438.45,-172.78 440.4,-170.65 442.83,-168.53 445.75,-166.46 449.14,-164.41 452.99,-162.42 457.29,-160.47 462.03,-158.57 467.19,-156.73 472.75,-154.96 478.7,-153.26 485,-151.64 491.64,-150.1 498.58,-148.64 505.8,-147.28 513.27,-146.01 520.96,-144.84 528.84,-143.78 536.87,-142.83 545.02,-141.99 553.26,-141.26"/>
<text text-anchor="middle" x="578.82" y="-180.4" font-family="sans-serif" font-size="16.00">GestionVehiculos</text>
</g>
<!-- GestionClientes&#45;&gt;GestionVehiculos -->
<g id="edge4" class="edge">
<title>GestionClientes&#45;&gt;GestionVehiculos</title>
<path fill="none" stroke="black" stroke-width="2" d="M403.72,-291.08C439.16,-269.64 484.4,-242.29 520.01,-220.76"/>
<text text-anchor="middle" x="524.82" y="-251.28" font-family="sans-serif" font-size="12.00">Customer/Supplier</text>
<polygon fill="white" stroke="transparent" points="513.01,-211.76 513.01,-228.76 527.01,-228.76 527.01,-211.76 513.01,-211.76"/>
<text text-anchor="start" x="515.01" y="-217.16" font-family="sans-serif" font-size="12.00">D</text>
<polygon fill="white" stroke="transparent" points="396.72,-282.08 396.72,-299.08 410.72,-299.08 410.72,-282.08 396.72,-282.08"/>
<text text-anchor="start" x="398.72" y="-287.48" font-family="sans-serif" font-size="12.00">U</text>
</g>
<!-- Seguridad&#45;&gt;GestionPagos -->
<g id="edge6" class="edge">
<title>Seguridad&#45;&gt;GestionPagos</title>
<path fill="none" stroke="black" stroke-width="2" d="M92.26,-139.5C92.32,-128.08 94.71,-116.47 101.82,-107.52 119.48,-85.29 180.97,-69.95 238.67,-60.12"/>
<text text-anchor="middle" x="177.32" y="-110.92" font-family="sans-serif" font-size="12.00"> &#160;&#160;&#160;&#160;&#160;&#160;&#160;&#160;&#160;&#160;&#160;&#160;&#160;&#160;&#160;&#160;&#160;&#160;&#160;&#160;&#160;&#160;&#160;&#160;&#160;&#160;&#160;&#160;&#160;&#160;&#160;&#160;&#160;&#160;&#160;&#160;&#160;&#160;&#160;</text>
<polygon fill="white" stroke="transparent" points="215.67,-50.12 215.67,-69.12 231.67,-69.12 231.67,-50.12 215.67,-50.12"/>
<polyline fill="none" stroke="black" points="231.67,-50.12 231.67,-69.12 "/>
<text text-anchor="start" x="218.67" y="-56.52" font-family="sans-serif" font-size="12.00">D</text>
<polygon fill="white" stroke="transparent" points="231.67,-50.12 231.67,-69.12 261.67,-69.12 261.67,-50.12 231.67,-50.12"/>
<polygon fill="none" stroke="black" points="231.67,-50.12 231.67,-69.12 261.67,-69.12 261.67,-50.12 231.67,-50.12"/>
<text text-anchor="start" x="234.67" y="-56.52" font-family="sans-serif" font-size="12.00">ACL</text>
<polygon fill="white" stroke="transparent" points="85.26,-130.5 85.26,-147.5 99.26,-147.5 99.26,-130.5 85.26,-130.5"/>
<text text-anchor="start" x="87.26" y="-135.9" font-family="sans-serif" font-size="12.00">U</text>
</g>
<!-- GestionVehiculos&#45;&gt;GestionPagos -->
<g id="edge7" class="edge">
<title>GestionVehiculos&#45;&gt;GestionPagos</title>
<path fill="none" stroke="black" stroke-width="2" d="M516.77,-145.46C485.93,-126.71 448.69,-104.06 417.5,-85.09"/>
<text text-anchor="middle" x="547.32" y="-110.92" font-family="sans-serif" font-size="12.00"> &#160;&#160;&#160;&#160;&#160;&#160;&#160;&#160;&#160;&#160;&#160;&#160;&#160;&#160;&#160;&#160;&#160;&#160;&#160;&#160;&#160;&#160;&#160;&#160;&#160;&#160;&#160;&#160;&#160;&#160;&#160;&#160;&#160;&#160;&#160;&#160;&#160;&#160;&#160;</text>
<polygon fill="white" stroke="transparent" points="394.5,-75.09 394.5,-94.09 410.5,-94.09 410.5,-75.09 394.5,-75.09"/>
<polyline fill="none" stroke="black" points="410.5,-75.09 410.5,-94.09 "/>
<text text-anchor="start" x="397.5" y="-81.49" font-family="sans-serif" font-size="12.00">D</text>
<polygon fill="white" stroke="transparent" points="410.5,-75.09 410.5,-94.09 440.5,-94.09 440.5,-75.09 410.5,-75.09"/>
<polygon fill="none" stroke="black" points="410.5,-75.09 410.5,-94.09 440.5,-94.09 440.5,-75.09 410.5,-75.09"/>
<text text-anchor="start" x="413.5" y="-81.49" font-family="sans-serif" font-size="12.00">ACL</text>
<polygon fill="white" stroke="transparent" points="509.77,-136.46 509.77,-153.46 523.77,-153.46 523.77,-136.46 509.77,-136.46"/>
<text text-anchor="start" x="511.77" y="-141.86" font-family="sans-serif" font-size="12.00">U</text>
</g>
</g>
</svg>
